REM DIRINDEX 1\2,1\3,1\4,1\5
REM DIRNAME folder01,folder02,folder03,folder04,folder05
TITLE ""
FILE "1800_172.mp3" MP3
  TRACK 01 AUDIO
    TITLE "2:cjc044_5781"
    INDEX 01 00:00:00
  TRACK 02 AUDIO
    TITLE "0:"
    INDEX 01 00:01:15
  TRACK 03 AUDIO
    TITLE "3:cjc044_5782"
    INDEX 01 00:01:66
  TRACK 04 AUDIO
    TITLE "0:"
    INDEX 01 00:03:00
  TRACK 05 AUDIO
    TITLE "4:cjc044_5783"
    INDEX 01 00:03:51
  TRACK 06 AUDIO
    TITLE "0:"
    INDEX 01 00:05:03
  TRACK 07 AUDIO
    TITLE "2:cjc044_5784"
    INDEX 01 00:06:57
  TRACK 08 AUDIO
    TITLE "0:"
    INDEX 01 00:07:72
  TRACK 09 AUDIO
    TITLE "3:cjc044_5785"
    INDEX 01 00:08:44
  TRACK 10 AUDIO
    TITLE "0:"
    INDEX 01 00:09:45
  TRACK 11 AUDIO
    TITLE "4:cjc044_5786"
    INDEX 01 00:10:16
  TRACK 12 AUDIO
    TITLE "0:"
    INDEX 01 00:11:31
  TRACK 13 AUDIO
    TITLE "2:cjc044_5787"
    INDEX 01 00:13:06
  TRACK 14 AUDIO
    TITLE "0:"
    INDEX 01 00:14:27
  TRACK 15 AUDIO
    TITLE "3:cjc044_5788"
    INDEX 01 00:15:01
  TRACK 16 AUDIO
    TITLE "0:"
    INDEX 01 00:16:16
  TRACK 17 AUDIO
    TITLE "4:cjc044_5789"
    INDEX 01 00:16:65
  TRACK 18 AUDIO
    TITLE "0:"
    INDEX 01 00:18:13
  TRACK 19 AUDIO
    TITLE "2:cjc044_5790"
    INDEX 01 00:19:62
  TRACK 20 AUDIO
    TITLE "0:"
    INDEX 01 00:21:15
  TRACK 21 AUDIO
    TITLE "3:cjc044_5791"
    INDEX 01 00:21:62
  TRACK 22 AUDIO
    TITLE "0:"
    INDEX 01 00:23:03
  TRACK 23 AUDIO
    TITLE "4:cjc044_5792"
    INDEX 01 00:23:51
  TRACK 24 AUDIO
    TITLE "0:"
    INDEX 01 00:25:05
  TRACK 25 AUDIO
    TITLE "2:cjc044_5793"
    INDEX 01 00:26:54
  TRACK 26 AUDIO
    TITLE "0:"
    INDEX 01 00:28:19
  TRACK 27 AUDIO
    TITLE "3:cjc044_5794"
    INDEX 01 00:28:62
  TRACK 28 AUDIO
    TITLE "0:"
    INDEX 01 00:30:14
  TRACK 29 AUDIO
    TITLE "4:cjc044_5795"
    INDEX 01 00:30:63
  TRACK 30 AUDIO
    TITLE "0:"
    INDEX 01 00:32:27
  TRACK 31 AUDIO
    TITLE "2:cjc044_5796"
    INDEX 01 00:34:00
  TRACK 32 AUDIO
    TITLE "0:"
    INDEX 01 00:35:31
  TRACK 33 AUDIO
    TITLE "3:cjc044_5797"
    INDEX 01 00:36:03
  TRACK 34 AUDIO
    TITLE "0:"
    INDEX 01 00:37:57
  TRACK 35 AUDIO
    TITLE "4:cjc044_5798"
    INDEX 01 00:38:30
  TRACK 36 AUDIO
    TITLE "0:"
    INDEX 01 00:39:62
  TRACK 37 AUDIO
    TITLE "2:cjc044_5799"
    INDEX 01 00:41:40
  TRACK 38 AUDIO
    TITLE "0:"
    INDEX 01 00:42:61
  TRACK 39 AUDIO
    TITLE "3:cjc044_5800"
    INDEX 01 00:43:37
  TRACK 40 AUDIO
    TITLE "0:"
    INDEX 01 00:44:28
  TRACK 41 AUDIO
    TITLE "4:cjc044_5801"
    INDEX 01 00:44:73
  TRACK 42 AUDIO
    TITLE "0:"
    INDEX 01 00:46:25
  TRACK 43 AUDIO
    TITLE "2:cjc044_5802"
    INDEX 01 00:48:02
  TRACK 44 AUDIO
    TITLE "0:"
    INDEX 01 00:49:04
  TRACK 45 AUDIO
    TITLE "3:cjc044_5803"
    INDEX 01 00:49:53
  TRACK 46 AUDIO
    TITLE "0:"
    INDEX 01 00:50:64
  TRACK 47 AUDIO
    TITLE "4:cjc044_5804"
    INDEX 01 00:51:38
  TRACK 48 AUDIO
    TITLE "0:"
    INDEX 01 00:52:41
  TRACK 49 AUDIO
    TITLE "2:cjc044_5805"
    INDEX 01 00:54:21
  TRACK 50 AUDIO
    TITLE "0:"
    INDEX 01 00:55:57
  TRACK 51 AUDIO
    TITLE "3:cjc044_5806"
    INDEX 01 00:56:31
  TRACK 52 AUDIO
    TITLE "0:"
    INDEX 01 00:57:37
  TRACK 53 AUDIO
    TITLE "4:cjc044_5807"
    INDEX 01 00:58:11
  TRACK 54 AUDIO
    TITLE "0:"
    INDEX 01 00:59:45
  TRACK 55 AUDIO
    TITLE "2:cjc044_5808"
    INDEX 01 01:01:25
  TRACK 56 AUDIO
    TITLE "0:"
    INDEX 01 01:02:57
  TRACK 57 AUDIO
    TITLE "3:cjc044_5809"
    INDEX 01 01:03:31
  TRACK 58 AUDIO
    TITLE "0:"
    INDEX 01 01:04:56
  TRACK 59 AUDIO
    TITLE "4:cjc044_5810"
    INDEX 01 01:05:28
  TRACK 60 AUDIO
    TITLE "0:"
    INDEX 01 01:06:57
  TRACK 61 AUDIO
    TITLE "2:cjc044_5811"
    INDEX 01 01:08:35
  TRACK 62 AUDIO
    TITLE "0:"
    INDEX 01 01:09:34
  TRACK 63 AUDIO
    TITLE "3:cjc044_5812"
    INDEX 01 01:10:10
  TRACK 64 AUDIO
    TITLE "0:"
    INDEX 01 01:11:13
  TRACK 65 AUDIO
    TITLE "4:cjc044_5813"
    INDEX 01 01:11:62
  TRACK 66 AUDIO
    TITLE "0:"
    INDEX 01 01:12:66
  TRACK 67 AUDIO
    TITLE "2:cjc044_5814"
    INDEX 01 01:14:43
  TRACK 68 AUDIO
    TITLE "0:"
    INDEX 01 01:16:07
  TRACK 69 AUDIO
    TITLE "3:cjc044_5815"
    INDEX 01 01:16:56
  TRACK 70 AUDIO
    TITLE "0:"
    INDEX 01 01:18:66
  TRACK 71 AUDIO
    TITLE "4:cjc044_5816"
    INDEX 01 01:19:38
  TRACK 72 AUDIO
    TITLE "0:"
    INDEX 01 01:21:00
  TRACK 73 AUDIO
    TITLE "2:cjc044_5817"
    INDEX 01 01:22:50
  TRACK 74 AUDIO
    TITLE "0:"
    INDEX 01 01:24:00
  TRACK 75 AUDIO
    TITLE "3:cjc044_5818"
    INDEX 01 01:24:47
  TRACK 76 AUDIO
    TITLE "0:"
    INDEX 01 01:25:43
  TRACK 77 AUDIO
    TITLE "4:cjc044_5819"
    INDEX 01 01:26:15
  TRACK 78 AUDIO
    TITLE "0:"
    INDEX 01 01:27:40
  TRACK 79 AUDIO
    TITLE "2:cjc044_5820"
    INDEX 01 01:29:11
  TRACK 80 AUDIO
    TITLE "0:"
    INDEX 01 01:30:18
  TRACK 81 AUDIO
    TITLE "3:cjc044_5821"
    INDEX 01 01:30:71
  TRACK 82 AUDIO
    TITLE "0:"
    INDEX 01 01:32:27
  TRACK 83 AUDIO
    TITLE "4:cjc044_5822"
    INDEX 01 01:33:01
  TRACK 84 AUDIO
    TITLE "0:"
    INDEX 01 01:34:08
  TRACK 85 AUDIO
    TITLE "2:cjc044_5823"
    INDEX 01 01:35:71
  TRACK 86 AUDIO
    TITLE "0:"
    INDEX 01 01:37:13
  TRACK 87 AUDIO
    TITLE "3:cjc044_5824"
    INDEX 01 01:37:64
  TRACK 88 AUDIO
    TITLE "0:"
    INDEX 01 01:38:55
  TRACK 89 AUDIO
    TITLE "4:cjc044_5825"
    INDEX 01 01:39:29
  TRACK 90 AUDIO
    TITLE "0:"
    INDEX 01 01:40:52
  TRACK 91 AUDIO
    TITLE "2:cjc044_5826"
    INDEX 01 01:42:26
  TRACK 92 AUDIO
    TITLE "0:"
    INDEX 01 01:43:72
  TRACK 93 AUDIO
    TITLE "3:cjc044_5827"
    INDEX 01 01:44:46
  TRACK 94 AUDIO
    TITLE "0:"
    INDEX 01 01:45:51
  TRACK 95 AUDIO
    TITLE "4:cjc044_5828"
    INDEX 01 01:46:25
  TRACK 96 AUDIO
    TITLE "0:"
    INDEX 01 01:47:70
  TRACK 97 AUDIO
    TITLE "2:cjc044_5829"
    INDEX 01 01:49:43
  TRACK 98 AUDIO
    TITLE "0:"
    INDEX 01 01:50:54
  TRACK 99 AUDIO
    TITLE "3:cjc044_5830"
    INDEX 01 01:51:28
  TRACK 100 AUDIO
    TITLE "0:"
    INDEX 01 01:52:40
  TRACK 101 AUDIO
    TITLE "4:cjc044_5831"
    INDEX 01 01:53:06
  TRACK 102 AUDIO
    TITLE "0:"
    INDEX 01 01:54:13
  TRACK 103 AUDIO
    TITLE "2:cjc044_5832"
    INDEX 01 01:55:65
  TRACK 104 AUDIO
    TITLE "0:"
    INDEX 01 01:56:69
  TRACK 105 AUDIO
    TITLE "3:cjc044_5833"
    INDEX 01 01:57:43
  TRACK 106 AUDIO
    TITLE "0:"
    INDEX 01 01:59:22
  TRACK 107 AUDIO
    TITLE "4:cjc044_5834"
    INDEX 01 01:59:69
  TRACK 108 AUDIO
    TITLE "0:"
    INDEX 01 02:00:74
  TRACK 109 AUDIO
    TITLE "2:cjc044_5835"
    INDEX 01 02:02:48
  TRACK 110 AUDIO
    TITLE "0:"
    INDEX 01 02:04:31
  TRACK 111 AUDIO
    TITLE "3:cjc044_5836"
    INDEX 01 02:05:05
  TRACK 112 AUDIO
    TITLE "0:"
    INDEX 01 02:06:34
  TRACK 113 AUDIO
    TITLE "4:cjc044_5837"
    INDEX 01 02:07:06
  TRACK 114 AUDIO
    TITLE "0:"
    INDEX 01 02:08:64
